:FULLY-SPECIFIED
:FORCE-ALL-JOINTS-BE-3DOF
:DEGREES
2242
root -0.651956 13.7451 -16.9283 911.598 -26.4243 168.524
lfemur 12.1655 -0.338276 -14.4997
ltibia 33.4006 0 0
lfoot -24.4018 37.2533 0
ltoes -43.3117 0 0
rfemur -71.9434 -23.4457 8.53442
rtibia 72.9837 0 0
rfoot -6.38735 14.9024 0
rtoes 3.52909 0 0
lowerback 9.31677 2.22605 -13.6421
upperback -2.93258 0.877518 -2.26556
thorax -8.69632 1.00177 5.06297
lowerneck 1.66029 -12.5001 -12.9414
upperneck 3.94907 -17.3841 10.7756
head 2.93103 -8.73002 4.59358
lclavicle 3.66405e-14 2.1314e-14 0
lhumerus -76.5148 -16.1155 105.15
lradius 105.108 0 0
lwrist 65.061 0 0
lhand -8.71315 425.882 0
lfingers 7.12502 0 0
lthumb 17.2253 -346.66 0
rclavicle 3.66405e-14 2.1314e-14 0
rhumerus 53.6422 -11.3821 -59.5429
rradius 8.66809 0 0
rwrist 42.5813 0 0
rhand -26.1071 -403.877 0
rfingers 7.12502 0 0
rthumb 1.19209 281.184 0
2243
root -0.663687 13.7496 -16.8951 911.64 -26.3358 168.527
lfemur 12.0926 -0.350748 -14.6209
ltibia 33.2643 0 0
lfoot -24.3307 37.2058 0
ltoes -43.4603 0 0
rfemur -72.0511 -23.4063 8.58979
rtibia 73.1173 0 0
rfoot -6.41412 14.8604 0
rtoes 3.61779 0 0
lowerback 9.24124 2.20804 -13.6598
upperback -2.94338 0.862005 -2.26118
thorax -8.66178 0.993001 5.08184
lowerneck 1.58516 -12.4674 -12.8787
upperneck 4.01031 -17.3365 10.745
head 2.95234 -8.70569 4.57386
lclavicle 3.60674e-14 2.1955e-14 0
lhumerus -75.7779 -16.3378 105.018
lradius 104.78 0 0
lwrist 64.6679 0 0
lhand -8.9642 425.409 0
lfingers 7.12502 0 0
lthumb 16.9833 -340.756 0
rclavicle 3.60674e-14 2.1955e-14 0
rhumerus 53.1994 -11.2606 -59.5657
rradius 9.53223 0 0
rwrist 41.7532 0 0
rhand -25.4751 -403.755 0
rfingers 7.12502 0 0
rthumb 1.72306 281.84 0
2244
root -0.675439 13.7538 -16.8627 911.682 -26.2464 168.531
lfemur 12.0261 -0.361451 -14.7399
ltibia 33.1234 0 0
lfoot -24.2577 37.1586 0
ltoes -43.6104 0 0
rfemur -72.159 -23.3665 8.6458
rtibia 73.2544 0 0
rfoot -6.44386 14.8189 0
rtoes 3.70586 0 0
lowerback 9.1664 2.19092 -13.6779
upperback -2.95367 0.847621 -2.25643
thorax -8.62733 0.98481 5.10111
lowerneck 1.51031 -12.4347 -12.816
upperneck 4.07083 -17.289 10.7144
head 2.97338 -8.68139 4.55417
lclavicle 3.54835e-14 2.25398e-14 0
lhumerus -75.0462 -16.5593 104.888
lradius 104.453 0 0
lwrist 64.2792 0 0
lhand -9.21599 424.928 0
lfingers 7.12502 0 0
lthumb 16.7405 -334.872 0
rclavicle 3.54835e-14 2.25398e-14 0
rhumerus 52.7593 -11.1384 -59.5845
rradius 10.3909 0 0
rwrist 40.9283 0 0
rhand -24.8471 -403.634 0
rfingers 7.12502 0 0
rthumb 2.25074 282.492 0
2245
root -0.687131 13.7577 -16.8314 911.723 -26.1567 168.535
lfemur 11.968 -0.370575 -14.8559
ltibia 32.976 0 0
lfoot -24.1827 37.1125 0
ltoes -43.7624 0 0
rfemur -72.2683 -23.3278 8.70233
rtibia 73.3962 0 0
rfoot -6.47809 14.7788 0
rtoes 3.79312 0 0
lowerback 9.09211 2.17495 -13.6966
upperback -2.96358 0.834662 -2.25154
thorax -8.5931 0.977357 5.12059
lowerneck 1.43634 -12.4027 -12.7538
upperneck 4.12974 -17.2423 10.6842
head 2.99386 -8.65742 4.53471
lclavicle 3.48914e-14 2.30644e-14 0
lhumerus -74.3278 -16.7778 104.762
lradius 104.131 0 0
lwrist 63.9 0 0
lhand -9.46688 424.441 0
lfingers 7.12502 0 0
lthumb 16.4986 -329.021 0
rclavicle 3.48914e-14 2.30644e-14 0
rhumerus 52.3268 -11.017 -59.598
rradius 11.2352 0 0
rwrist 40.1145 0 0
rhand -24.2301 -403.514 0
rfingers 7.12502 0 0
rthumb 2.76928 283.133 0
2246
root -0.698681 13.7611 -16.8021 911.765 -26.0671 168.538
lfemur 11.9205 -0.378311 -14.9679
ltibia 32.8205 0 0
lfoot -24.1056 37.0684 0
ltoes -43.9169 0 0
rfemur -72.3801 -23.2911 8.75928
rtibia 73.5437 0 0
rfoot -6.51831 14.7408 0
rtoes 3.87937 0 0
lowerback 9.01822 2.16039 -13.7161
upperback -2.97326 0.823427 -2.24678
thorax -8.55924 0.970803 5.14006
lowerneck 1.36386 -12.3717 -12.6925
upperneck 4.18614 -17.1969 10.6549
head 3.01355 -8.63411 4.51565
lclavicle 3.42938e-14 2.35244e-14 0
lhumerus -73.6305 -16.9912 104.641
lradius 103.817 0 0
lwrist 63.5351 0 0
lhand -9.71524 423.95 0
lfingers 7.12502 0 0
lthumb 16.2592 -323.22 0
rclavicle 3.42938e-14 2.35244e-14 0
rhumerus 51.9067 -10.8978 -59.6051
rradius 12.056 0 0
rwrist 39.3198 0 0
rhand -23.6309 -403.397 0
rfingers 7.12502 0 0
rthumb 3.27281 283.756 0
2247
root -0.710009 13.764 -16.7753 911.809 -25.9782 168.541
lfemur 11.8859 -0.38485 -15.0753
ltibia 32.6551 0 0
lfoot -24.0262 37.0274 0
ltoes -44.0745 0 0
rfemur -72.4958 -23.2578 8.81654
rtibia 73.698 0 0
rfoot -6.56602 14.7057 0
rtoes 3.96441 0 0
lowerback 8.94459 2.14749 -13.7366
upperback -2.98284 0.814214 -2.24239
thorax -8.52588 0.965309 5.1593
lowerneck 1.29348 -12.3422 -12.6325
upperneck 4.23913 -17.1535 10.6268
head 3.03216 -8.61177 4.49719
lclavicle 3.36933e-14 2.39157e-14 0
lhumerus -72.9622 -17.1973 104.526
lradius 103.515 0 0
lwrist 63.1897 0 0
lhand -9.95944 423.458 0
lfingers 7.12502 0 0
lthumb 16.0237 -317.484 0
rclavicle 3.36933e-14 2.39157e-14 0
rhumerus 51.5039 -10.782 -59.6046
rradius 12.8443 0 0
rwrist 38.5519 0 0
rhand -23.0565 -403.284 0
rfingers 7.12502 0 0
rthumb 3.75548 284.353 0
2248
root -0.721033 13.766 -16.7517 911.856 -25.8906 168.542
lfemur 11.8662 -0.390382 -15.1771
ltibia 32.478 0 0
lfoot -23.9444 36.9904 0
ltoes -44.2356 0 0
rfemur -72.6165 -23.2291 8.87399
rtibia 73.8605 0 0
rfoot -6.62273 14.6744 0
rtoes 4.04805 0 0
lowerback 8.87106 2.13651 -13.7584
upperback -2.99245 0.807322 -2.23861
thorax -8.49315 0.961037 5.17812
lowerneck 1.2258 -12.3148 -12.5743
upperneck 4.28782 -17.1128 10.6004
head 3.04944 -8.59073 4.47951
lclavicle 3.30925e-14 2.42342e-14 0
lhumerus -72.331 -17.394 104.42
lradius 103.227 0 0
lwrist 62.8687 0 0
lhand -10.1978 422.964 0
lfingers 7.12502 0 0
lthumb 15.7939 -311.827 0
rclavicle 3.30925e-14 2.42342e-14 0
rhumerus 51.1232 -10.6711 -59.5953
rradius 13.5911 0 0
rwrist 37.8189 0 0
rhand -22.5139 -403.177 0
rfingers 7.12502 0 0
rthumb 4.21143 284.919 0
2249
root -0.731671 13.7672 -16.7318 911.907 -25.8049 168.54
lfemur 11.8637 -0.395099 -15.2726
ltibia 32.2874 0 0
lfoot -23.8603 36.9583 0
ltoes -44.4008 0 0
rfemur -72.7435 -23.2061 8.93154
rtibia 74.0321 0 0
rfoot -6.68995 14.6476 0
rtoes 4.1301 0 0
lowerback 8.79749 2.12771 -13.7816
upperback -3.00225 0.803048 -2.23569
thorax -8.46119 0.958147 5.19629
lowerneck 1.16143 -12.2899 -12.5184
upperneck 4.33129 -17.0754 10.576
head 3.06513 -8.57131 4.4628
lclavicle 3.24941e-14 2.44756e-14 0
lhumerus -71.7447 -17.5791 104.324
lradius 102.957 0 0
lwrist 62.5772 0 0
lhand -10.4288 422.473 0
lfingers 7.12502 0 0
lthumb 15.5713 -306.266 0
rclavicle 3.24941e-14 2.44756e-14 0
rhumerus 50.7694 -10.5664 -59.576
rradius 14.2874 0 0
rwrist 37.1286 0 0
rhand -22.0101 -403.075 0
rfingers 7.12502 0 0
rthumb 4.63482 285.446 0
2250
root -0.741842 13.7674 -16.7165 911.963 -25.7215 168.536
lfemur 11.8805 -0.39919 -15.3609
ltibia 32.0816 0 0
lfoot -23.7736 36.932 0
ltoes -44.5707 0 0
rfemur -72.8779 -23.19 8.98908
rtibia 74.214 0 0
rfoot -6.76917 14.6261 0
rtoes 4.21036 0 0
lowerback 8.72374 2.12135 -13.8065
upperback -3.01235 0.801691 -2.23388
thorax -8.43014 0.956802 5.21361
lowerneck 1.10098 -12.2681 -12.4652
upperneck 4.36866 -17.042 10.5541
head 3.07896 -8.55381 4.44726
lclavicle 3.19009e-14 2.46357e-14 0
lhumerus -71.2112 -17.7504 104.239
lradius 102.709 0 0
lwrist 62.3202 0 0
lhand -10.6507 421.985 0
lfingers 7.12502 0 0
lthumb 15.3574 -300.815 0
rclavicle 3.19009e-14 2.46357e-14 0
rhumerus 50.4473 -10.4693 -59.5455
rradius 14.9241 0 0
rwrist 36.489 0 0
rhand -21.5519 -402.981 0
rfingers 7.12502 0 0
rthumb 5.01978 285.927 0
2251
root -0.751465 13.7665 -16.7062 912.026 -25.641 168.529
lfemur 11.9188 -0.402848 -15.4413
ltibia 31.8588 0 0
lfoot -23.6843 36.9125 0
ltoes -44.7457 0 0
rfemur -73.021 -23.1821 9.04648
rtibia 74.4073 0 0
rfoot -6.86191 14.6107 0
rtoes 4.28864 0 0
lowerback 8.64966 2.11769 -13.8333
upperback -3.02291 0.803548 -2.23341
thorax -8.40014 0.957161 5.22987
lowerneck 1.04506 -12.2498 -12.4151
upperneck 4.39903 -17.0133 10.5351
head 3.09067 -8.53857 4.43306
lclavicle 3.13154e-14 2.47104e-14 0
lhumerus -70.7386 -17.906 104.167
lradius 102.486 0 0
lwrist 62.1026 0 0
lhand -10.8619 421.503 0
lfingers 7.12502 0 0
lthumb 15.1538 -295.489 0
rclavicle 3.13154e-14 2.47104e-14 0
rhumerus 50.1619 -10.3812 -59.5027
rradius 15.4922 0 0
rwrist 35.908 0 0
rhand -21.1463 -402.897 0
rfingers 7.12502 0 0
rthumb 5.36046 286.355 0
2252
root -0.760457 13.7643 -16.7016 912.096 -25.564 168.518
lfemur 11.9808 -0.406262 -15.5128
ltibia 31.6173 0 0
lfoot -23.5922 36.9006 0
ltoes -44.9264 0 0
rfemur -73.174 -23.1835 9.10366
rtibia 74.6133 0 0
rfoot -6.96966 14.6021 0
rtoes 4.36474 0 0
lowerback 8.5751 2.11698 -13.8621
upperback -3.03405 0.808918 -2.23455
thorax -8.37131 0.959387 5.24485
lowerneck 0.994265 -12.2354 -12.3687
upperneck 4.4215 -16.9898 10.5194
head 3.09999 -8.5259 4.42039
lclavicle 3.07403e-14 2.46954e-14 0
lhumerus -70.3347 -18.0435 104.11
lradius 102.29 0 0
lwrist 61.9295 0 0
lhand -11.0607 421.029 0
lfingers 7.12502 0 0
lthumb 14.9621 -290.303 0
rclavicle 3.07403e-14 2.46954e-14 0
rhumerus 49.9179 -10.3034 -59.4462
rradius 15.9827 0 0
rwrist 35.3935 0 0
rhand -20.8002 -402.822 0
rfingers 7.12502 0 0
rthumb 5.651 286.724 0
2253
root -0.768738 13.7607 -16.7034 912.175 -25.491 168.502
lfemur 12.0685 -0.409623 -15.5747
ltibia 31.3552 0 0
lfoot -23.4974 36.8975 0
ltoes -45.1133 0 0
rfemur -73.3381 -23.1954 9.16049
rtibia 74.8329 0 0
rfoot -7.09393 14.6013 0
rtoes 4.43847 0 0
lowerback 8.49991 2.11949 -13.8933
upperback -3.04592 0.818098 -2.23753
thorax -8.3438 0.96364 5.25834
lowerneck 0.94921 -12.2256 -12.3263
upperneck 4.43516 -16.9723 10.5075
head 3.10667 -8.51611 4.40945
lclavicle 3.01782e-14 2.45866e-14 0
lhumerus -70.0075 -18.1608 104.068
lradius 102.125 0 0
lwrist 61.8059 0 0
lhand -11.2456 420.564 0
lfingers 7.12502 0 0
lthumb 14.7839 -285.274 0
rclavicle 3.01782e-14 2.45866e-14 0
rhumerus 49.7202 -10.2373 -59.3751
rradius 16.3866 0 0
rwrist 34.9534 0 0
rhand -20.5207 -402.758 0
rfingers 7.12502 0 0
rthumb 5.88554 287.026 0
2254
root -0.776227 13.7556 -16.7121 912.264 -25.4225 168.481
lfemur 12.1842 -0.413122 -15.6261
ltibia 31.0709 0 0
lfoot -23.3996 36.9039 0
ltoes -45.3069 0 0
rfemur -73.5145 -23.219 9.21688
rtibia 75.0675 0 0
rfoot -7.23622 14.609 0
rtoes 4.50964 0 0
lowerback 8.42396 2.12548 -13.9271
upperback -3.05865 0.831388 -2.2426
thorax -8.31774 0.970082 5.27014
lowerneck 0.910499 -12.2207 -12.2885
upperneck 4.43913 -16.9614 10.4997
head 3.11044 -8.50953 4.40042
lclavicle 2.96319e-14 2.43798e-14 0
lhumerus -69.7649 -18.2558 104.045
lradius 101.995 0 0
lwrist 61.7368 0 0
lhand -11.4148 420.11 0
lfingers 7.12502 0 0
lthumb 14.6208 -280.415 0
rclavicle 2.96319e-14 2.43798e-14 0
rhumerus 49.5736 -10.1842 -59.2879
rradius 16.6948 0 0
rwrist 34.5956 0 0
rhand -20.3145 -402.706 0
rfingers 7.12502 0 0
rthumb 6.05824 287.255 0
2255
root -0.782841 13.7488 -16.7285 912.363 -25.3592 168.455
lfemur 12.3301 -0.41695 -15.6662
ltibia 30.7626 0 0
lfoot -23.2988 36.9208 0
ltoes -45.5079 0 0
rfemur -73.7044 -23.2556 9.27271
rtibia 75.318 0 0
rfoot -7.39804 14.6259 0
rtoes 4.57805 0 0
lowerback 8.34708 2.13519 -13.9636
upperback -3.07239 0.849085 -2.25002
thorax -8.29326 0.978875 5.28003
lowerneck 0.87874 -12.2213 -12.2556
upperneck 4.4325 -16.9577 10.4964
head 3.11104 -8.50648 4.39349
lclavicle 2.91039e-14 2.40708e-14 0
lhumerus -69.6149 -18.3264 104.04
lradius 101.902 0 0
lwrist 61.7272 0 0
lhand -11.5669 419.669 0
lfingers 7.12502 0 0
lthumb 14.4744 -275.742 0
rclavicle 2.91039e-14 2.40708e-14 0
rhumerus 49.4829 -10.1456 -59.1837
rradius 16.8984 0 0
rwrist 34.328 0 0
rhand -20.1888 -402.668 0
rfingers 7.12502 0 0
rthumb 6.16323 287.404 0
